<svg xmlns="http://www.w3.org/2000/svg" width="1920" height="1080" viewBox="0 0 1920 1080" role="img" aria-label="Abstract mana ambient background">
  <defs>
    <linearGradient id="bg" x1="0" y1="0" x2="1" y2="1">
      <stop offset="0" stop-color="#050814"/>
      <stop offset="0.55" stop-color="#0b1023"/>
      <stop offset="1" stop-color="#070611"/>
    </linearGradient>
    <radialGradient id="glowAmber" cx="30%" cy="20%" r="65%">
      <stop offset="0" stop-color="#f59e0b" stop-opacity="0.55"/>
      <stop offset="0.35" stop-color="#f59e0b" stop-opacity="0.14"/>
      <stop offset="1" stop-color="#f59e0b" stop-opacity="0"/>
    </radialGradient>
    <radialGradient id="glowBlue" cx="80%" cy="35%" r="70%">
      <stop offset="0" stop-color="#3b82f6" stop-opacity="0.40"/>
      <stop offset="0.4" stop-color="#3b82f6" stop-opacity="0.12"/>
      <stop offset="1" stop-color="#3b82f6" stop-opacity="0"/>
    </radialGradient>
    <radialGradient id="glowGreen" cx="55%" cy="90%" r="75%">
      <stop offset="0" stop-color="#22c55e" stop-opacity="0.25"/>
      <stop offset="0.45" stop-color="#22c55e" stop-opacity="0.08"/>
      <stop offset="1" stop-color="#22c55e" stop-opacity="0"/>
    </radialGradient>
    <filter id="softNoise">
      <feTurbulence type="fractalNoise" baseFrequency="0.9" numOctaves="3" stitchTiles="stitch" seed="12" />
      <feColorMatrix type="matrix" values="
        1 0 0 0 0
        0 1 0 0 0
        0 0 1 0 0
        0 0 0 0.035 0" />
    </filter>
    <filter id="soften" x="-10%" y="-10%" width="120%" height="120%">
      <feGaussianBlur stdDeviation="18" />
    </filter>
  </defs>

  <rect width="1920" height="1080" fill="url(#bg)" />
  <rect width="1920" height="1080" fill="url(#glowAmber)" filter="url(#soften)" />
  <rect width="1920" height="1080" fill="url(#glowBlue)" filter="url(#soften)" />
  <rect width="1920" height="1080" fill="url(#glowGreen)" filter="url(#soften)" />

  <!-- Subtle rune-like arcs (pure geometry; no IP art) -->
  <g fill="none" stroke="#fbbf24" stroke-opacity="0.10">
    <path d="M-180 880 C 260 620, 520 620, 980 920 S 1680 1240, 2140 980" stroke-width="3" />
    <path d="M-220 740 C 210 520, 560 520, 1080 860 S 1700 1180, 2220 980" stroke-width="1.8" />
  </g>
  <g fill="none" stroke="#60a5fa" stroke-opacity="0.08">
    <path d="M-120 260 C 420 80, 780 160, 1180 360 S 1720 760, 2080 520" stroke-width="2.2" />
    <path d="M-140 340 C 380 160, 760 220, 1180 420 S 1700 820, 2060 640" stroke-width="1.4" />
  </g>

  <!-- Very light noise to avoid flat gradients -->
  <rect width="1920" height="1080" filter="url(#softNoise)" opacity="0.9" />
</svg>
