<svg width="512" height="512" viewBox="0 0 512 512" fill="none" xmlns="http://www.w3.org/2000/svg">
  <!-- MTG Maui Shield Icon -->
  <defs>
    <linearGradient id="shieldGradient" x1="0%" y1="0%" x2="100%" y2="100%">
      <stop offset="0%" style="stop-color:#8B5A2B;stop-opacity:1" />
      <stop offset="50%" style="stop-color:#D4AF37;stop-opacity:1" />
      <stop offset="100%" style="stop-color:#8B5A2B;stop-opacity:1" />
    </linearGradient>
    <linearGradient id="textGradient" x1="0%" y1="0%" x2="100%" y2="0%">
      <stop offset="0%" style="stop-color:#D4AF37;stop-opacity:1" />
      <stop offset="100%" style="stop-color:#FFD700;stop-opacity:1" />
    </linearGradient>
  </defs>

  <!-- Shield Background -->
  <path d="M256 32C213.12 32 176 69.12 176 112V256C176 320 224 368 256 400C288 368 336 320 336 256V112C336 69.12 298.88 32 256 32Z" fill="url(#shieldGradient)" stroke="#654321" stroke-width="8"/>

  <!-- Crown on top -->
  <path d="M208 80L224 64L240 80L256 64L272 80L288 64L304 80V96H208V80Z" fill="url(#textGradient)" stroke="#B8860B" stroke-width="2"/>

  <!-- MTG Text -->
  <text x="256" y="220" text-anchor="middle" fill="url(#textGradient)" font-family="serif" font-size="36" font-weight="bold">MTG</text>
  <text x="256" y="260" text-anchor="middle" fill="url(#textGradient)" font-family="serif" font-size="24" font-weight="bold">MAUI</text>

  <!-- Sword Cross -->
  <line x1="256" y1="140" x2="256" y2="180" stroke="url(#textGradient)" stroke-width="4"/>
  <line x1="240" y1="160" x2="272" y2="160" stroke="url(#textGradient)" stroke-width="4"/>
  <circle cx="256" cy="160" r="6" fill="url(#textGradient)"/>

  <!-- Decorative Border -->
  <circle cx="256" cy="160" r="120" fill="none" stroke="#654321" stroke-width="3" stroke-dasharray="10,5"/>
</svg>